PathFileType	4	(X/Y/Z)	s09c0402.trc
DataRate	CameraRate	NumFrames	NumMarkers	Units	OrigDataRate	OrigDataStartFrame	OrigNumFrames
200	200	6	50	mm	200	1500	2000
Frame#	Time	racr			lacr			c7			jug			rlel			rdr			llel			ldr			s2			lic			ric			lasi			rasi			rpsi			lpsi			rgt			lgt			rth1			rth2			rth3			rth4			rlfc			rmfc			rsh1			rsh2			rsh3			rsh4			rlmal			rmmal			rcal			rtoe			rmt5			lth1			lth2			lth4			lth3			llfc			lmfc			llmal			lmmal			lcal			lmt5			lsh1			lsh2			lsh3			lsh4			ltoe			SBIKE			LBIKE			RBIKE			
		X1	Y1	Z1	X2	Y2	Z2	X3	Y3	Z3	X4	Y4	Z4	X5	Y5	Z5	X6	Y6	Z6	X7	Y7	Z7	X8	Y8	Z8	X9	Y9	Z9	X10	Y10	Z10	X11	Y11	Z11	X12	Y12	Z12	X13	Y13	Z13	X14	Y14	Z14	X15	Y15	Z15	X16	Y16	Z16	X17	Y17	Z17	X18	Y18	Z18	X19	Y19	Z19	X20	Y20	Z20	X21	Y21	Z21	X22	Y22	Z22	X23	Y23	Z23	X24	Y24	Z24	X25	Y25	Z25	X26	Y26	Z26	X27	Y27	Z27	X28	Y28	Z28	X29	Y29	Z29	X30	Y30	Z30	X31	Y31	Z31	X32	Y32	Z32	X33	Y33	Z33	X34	Y34	Z34	X35	Y35	Z35	X36	Y36	Z36	X37	Y37	Z37	X38	Y38	Z38	X39	Y39	Z39	X40	Y40	Z40	X41	Y41	Z41	X42	Y42	Z42	X43	Y43	Z43	X44	Y44	Z44	X45	Y45	Z45	X46	Y46	Z46	X47	Y47	Z47	X48	Y48	Z48	X49	Y49	Z49	X50	Y50	Z50	
1500	7.5000	693.805129	1252.355827	-53.892699	713.284461	1248.782236	-432.677764	719.183882	1338.073275	-242.939174	707.277029	1199.740436	-245.017145	524.272398	1068.177213	29.818121	684.469217	908.001479	-44.647076	537.087677	1077.542830	-569.449578	676.221048	906.618813	-465.455311	234.491560	1166.103606	-273.663935	374.627713	1118.853410	-408.030155	370.561439	1162.394766	-116.390468	400.222569	1059.989034	-375.103424	400.030695	1098.810638	-130.334342	265.177444	1200.551411	-215.936572	274.955839	1187.103187	-326.135170	334.794353	1039.905493	-61.327708	299.093564	983.962721	-430.474117	441.163920	946.891965	-70.516366	519.489510	909.085475	-85.484298	563.936487	835.105541	-86.609249	534.356131	927.322201	-112.575536	600.498440	737.049185	-120.661928	573.352515	723.166190	-215.031944	503.759380	709.582236	-87.754109	433.434125	654.130946	-96.196536	347.221411	641.101806	-90.164686	445.297284	629.958635	-125.248248	252.416793	596.679753	-85.035632	260.417091	602.041845	-162.039550	173.895771	635.002171	-122.872684	332.761290	422.800179	-130.608842	270.573941	476.990462	-64.937471	335.155670	852.964980	-425.249560	378.907033	780.915551	-414.992355	414.395116	790.059251	-403.873561	379.944371	690.648579	-404.907139	392.417369	599.242344	-387.516822	392.109623	583.209307	-291.808622	260.458981	256.576342	-406.961427	282.332514	260.521534	-338.746450	190.276434	235.164574	-371.890323	344.194970	153.119087	-431.430541	348.459344	508.122967	-414.341468	343.539738	422.035214	-408.763711	295.133439	347.654479	-409.583802	369.060249	415.179250	-378.241471	437.131825	150.387072	-361.937142	-64.608372	852.320733	-241.317546	21.140686	83.717089	-442.030034	21.142066	83.936653	-44.005849	
1501	7.5050	693.610124	1251.318259	-50.524830	713.230718	1250.017612	-429.510370	718.431135	1338.090928	-239.284700	710.271841	1201.159909	-246.507382	523.538423	1066.755807	31.844958	684.258751	908.025434	-44.631472	538.408967	1078.503278	-567.741572	677.239339	906.188600	-464.752616	234.883288	1165.068882	-277.505811	378.328671	1116.890986	-408.173065	368.369703	1163.103214	-117.336443	402.403547	1058.395783	-374.112168	399.104266	1100.175917	-129.587272	264.377782	1199.912587	-219.436004	276.271477	1185.879332	-329.211880	333.240834	1041.596692	-62.621999	301.638691	982.338064	-431.636716	442.305774	950.984961	-71.217825	521.427003	914.700274	-85.718540	567.624041	842.140704	-85.192727	537.487055	933.525751	-112.708635	606.938988	744.494861	-119.480767	579.978296	731.067678	-216.412663	510.673178	715.720097	-87.697304	440.861971	659.783006	-96.119022	354.801925	645.719557	-90.189786	452.962326	635.734722	-125.070277	259.888080	600.239160	-85.353561	267.884518	605.654587	-162.329857	180.597338	636.887430	-122.639718	343.949791	428.216364	-130.682059	280.560052	480.986576	-65.123670	334.337093	851.657609	-426.069603	376.272296	778.780099	-415.525997	411.650604	786.804713	-403.260524	374.810903	688.097462	-405.482292	384.926052	596.825886	-387.919392	383.811423	581.005109	-291.926132	252.410306	254.818579	-407.534915	274.300868	258.515915	-339.734011	182.006064	234.754682	-372.766479	334.728223	149.818658	-431.289818	340.679173	506.203132	-414.853699	335.649560	420.078323	-409.312673	287.053417	345.837693	-410.166216	361.149811	413.205303	-378.936847	427.213839	145.531982	-361.273169	-64.616167	852.319330	-241.284516	21.132097	83.713218	-442.019477	21.131820	83.935001	-44.003934	
1502	7.5100	693.442145	1250.514414	-46.917208	713.114561	1251.224762	-426.423679	717.786958	1337.986042	-235.619230	710.587150	1202.189881	-245.026624	522.844569	1065.335358	33.795238	683.997791	908.267741	-44.370299	539.574862	1079.416715	-565.975721	677.287089	905.625703	-463.914817	235.288464	1164.201980	-281.295006	381.976778	1115.066933	-408.149877	366.114283	1163.927548	-118.260036	404.590758	1056.970720	-372.871340	398.113113	1101.469528	-128.386936	263.714415	1199.354635	-222.967942	277.767628	1184.787298	-332.033881	331.726834	1043.290304	-63.800358	304.341349	980.995986	-432.741107	443.716703	955.035652	-72.120525	523.170600	920.203891	-85.907220	570.781202	847.644232	-86.743599	539.106695	939.397808	-112.617202	613.104968	751.353900	-118.610066	586.224229	738.313062	-217.024868	517.451800	721.795097	-87.769708	447.890561	664.908904	-95.931651	361.976962	649.803123	-90.250903	460.538951	640.563017	-124.683220	267.216462	603.001226	-85.692814	275.034702	608.573377	-162.577695	187.212273	637.915116	-122.554178	355.281083	433.290402	-130.697343	290.648223	484.500717	-65.117802	333.675919	850.838781	-426.913609	373.695023	776.726127	-415.830999	408.808164	784.423077	-403.021865	370.059811	686.331210	-406.279504	377.924236	595.118162	-388.521822	376.104598	579.203193	-292.306942	244.356199	253.715301	-408.138006	266.237809	257.158545	-340.741029	173.721564	235.070507	-373.728349	325.192172	147.197571	-431.179575	333.306735	504.859390	-415.555345	327.915073	418.799917	-410.081540	279.072886	344.652728	-410.838962	353.550561	411.930936	-380.061229	417.106444	141.335174	-360.566523	-64.648142	852.328078	-241.240942	21.147797	83.746786	-442.044822	21.134490	83.929213	-43.998553	
1503	7.5150	693.385524	1249.473154	-43.565649	712.972228	1252.350005	-423.400951	717.717268	1337.788641	-231.749239	710.587589	1202.217682	-241.954830	522.234854	1063.932795	35.714749	683.764339	908.321969	-44.091973	540.486404	1080.574007	-564.363306	677.915145	905.416804	-464.032745	235.617143	1163.247488	-284.922711	385.525474	1113.525222	-407.998626	363.653623	1165.050088	-118.861601	406.654278	1055.689939	-371.369894	397.000884	1102.747935	-127.288843	263.215319	1198.944642	-226.494517	279.035514	1183.939682	-335.232343	330.202985	1044.970042	-64.758788	307.192127	979.990275	-433.778582	444.588864	959.262259	-72.556995	524.691916	925.681764	-85.990529	574.503674	853.159241	-88.126835	540.694240	945.647764	-112.706620	618.490845	758.851160	-117.785072	592.077817	744.733307	-217.738025	523.160635	727.521610	-87.303582	454.477021	669.563817	-95.665417	368.493769	653.239846	-90.570662	467.503629	645.451609	-124.430283	274.332419	604.982974	-85.923819	282.045248	610.688890	-162.690798	193.346047	638.046538	-122.546872	366.718932	437.989567	-130.874003	300.759765	487.361040	-65.248206	333.265512	850.786936	-428.077650	371.390872	775.574524	-416.385341	406.439277	782.406244	-402.653310	365.934832	685.228555	-407.919229	371.428074	594.020747	-389.476438	369.073462	577.862590	-292.945852	236.369631	253.331541	-408.803976	258.293788	256.498389	-341.825234	165.462393	236.067599	-374.562795	315.456270	145.257595	-431.108012	326.428705	504.084294	-416.366224	320.570612	418.033275	-410.891712	271.323371	344.214826	-411.597565	346.029877	410.885900	-380.713998	406.846975	137.690517	-360.026501	-64.674269	852.336790	-241.216480	21.124020	83.748891	-442.020407	21.137115	83.939851	-43.997124	
1504	7.5200	693.327309	1248.472253	-40.436010	712.865888	1253.366042	-420.419150	717.292325	1337.495775	-228.079586	710.415014	1202.034030	-238.502975	521.700747	1062.570176	37.648438	683.511640	908.388135	-43.793873	541.200008	1081.774894	-562.808008	678.080730	904.895735	-463.743514	236.063524	1162.689691	-288.305147	388.887341	1112.236232	-407.762015	361.599285	1166.134761	-119.673744	408.581957	1054.876807	-368.950027	395.724351	1103.961626	-126.135447	263.016800	1198.830181	-229.232545	280.192464	1183.205326	-338.113691	328.701154	1046.900965	-65.474046	310.145575	979.413502	-434.825015	445.132146	962.912920	-73.199770	525.702239	930.758588	-85.836624	576.172775	859.769626	-86.630391	541.742326	950.778812	-112.308856	623.700716	765.505525	-117.091329	597.569137	751.803285	-217.688172	527.649805	732.664121	-86.551192	460.543875	673.612800	-95.384949	374.545644	655.737802	-90.947990	474.071682	649.848580	-124.102531	281.331566	606.152725	-86.048590	288.805265	612.200279	-162.736670	199.324573	637.291142	-122.461737	378.170888	442.101984	-131.027174	310.888644	489.518409	-65.352116	332.970633	850.997637	-429.059255	369.400919	774.942221	-417.129674	404.196636	781.084713	-402.652429	361.946609	684.782557	-409.110015	365.512912	593.421901	-390.609827	362.866387	576.999982	-293.667929	228.377854	253.582697	-409.364838	250.660394	256.615231	-342.914700	157.277215	237.822518	-374.830697	305.385594	143.898027	-431.039411	320.060633	503.761749	-417.272704	313.619052	417.720727	-411.805182	263.846392	344.260670	-412.399012	339.037893	410.500852	-381.638669	396.538833	134.657636	-359.861326	-64.687118	852.353909	-241.200718	21.127972	83.748012	-442.025436	21.134876	83.918764	-43.996984	
1505	7.5250	693.417962	1247.638445	-37.252698	712.735819	1254.226068	-417.505689	716.949233	1337.210568	-224.754922	710.677093	1202.069128	-235.642844	521.195169	1061.268073	39.499769	683.339980	908.234481	-43.480535	541.664193	1082.971105	-561.338356	678.401760	904.938985	-464.643735	236.536394	1162.657693	-291.402276	391.924935	1111.527065	-407.531772	359.129180	1167.353379	-120.204643	410.500775	1054.238612	-367.576425	394.044593	1104.997019	-124.956523	262.356075	1199.224168	-232.154385	281.656870	1183.374627	-341.273610	327.252878	1048.854028	-65.901522	313.156146	979.316385	-435.980340	445.500767	966.455531	-73.491312	527.621858	935.164554	-85.792112	578.858682	865.027634	-87.379437	542.693794	956.006174	-111.911381	627.670791	772.759120	-115.780097	602.200555	757.535446	-217.598210	532.017554	737.196369	-85.948135	465.826789	677.301056	-94.813427	381.156882	657.867889	-89.819235	479.997601	653.575049	-123.758970	288.097868	606.389822	-86.061929	296.096387	612.760536	-161.874505	205.067316	635.415869	-122.313075	389.562568	445.694310	-131.120299	321.038606	490.984984	-65.307252	332.767767	851.637103	-430.044488	367.737104	774.836090	-418.044466	402.188847	780.264120	-403.098762	358.627718	684.709588	-410.835814	360.238737	593.274028	-391.882986	357.371520	576.533924	-294.551114	220.287761	254.560900	-409.582154	243.063025	257.370112	-343.704532	149.131608	240.379682	-374.705179	295.239573	143.304577	-430.918969	314.219911	503.872784	-418.186018	307.052030	417.912014	-412.591919	256.706241	344.843936	-412.949663	332.496488	410.371584	-382.408456	386.180726	132.255969	-359.776388	-64.702799	852.347693	-241.163064	21.140799	83.790138	-442.051837	21.137245	83.946067	-43.989796	
